<?xml version="1.0" encoding="UTF-8" standalone="no"?>
<svg width="79px" height="39px" viewBox="0 0 79 39" version="1.1" xmlns="http://www.w3.org/2000/svg" xmlns:xlink="http://www.w3.org/1999/xlink">
    <!-- Generator: Sketch 39.1 (31720) - http://www.bohemiancoding.com/sketch -->
    <title>ODD-logo</title>
    <desc>Created with Sketch.</desc>
    <defs></defs>
    <g id="Symbols" stroke="none" stroke-width="1" fill="none" fill-rule="evenodd">
        <g id="Header---Mens-Category-Active---Desktop" transform="translate(-681.000000, -13.000000)" fill="#000000">
            <g id="Top-Bar">
                <g id="ODD-logo" transform="translate(681.000000, 13.000000)">
                    <g id="ODD_logo_xA0_Image_1_">
                        <g id="Group">
                            <path d="M17.0970149,0.168831169 L17.0970149,3.39350649 C17.0970149,3.51168831 17.1307036,3.56233766 17.2654584,3.57922078 C19.1857143,3.76493506 21.0049041,4.25454545 22.7398721,5.0987013 C25.0643923,6.22987013 26.9846482,7.83376623 28.5343284,9.89350649 C29.9492537,11.7844156 30.875693,13.8948052 31.3473348,16.1909091 C31.650533,17.6597403 31.7347548,19.1285714 31.6168443,20.6142857 C31.4147122,23.0623377 30.6904051,25.3415584 29.4270789,27.4519481 C28.2816631,29.3597403 26.7993603,30.9636364 24.9801706,32.2636364 C23.3799574,33.3948052 21.6449893,34.2051948 19.7584222,34.6779221 C18.9835821,34.8636364 18.1918977,34.9480519 17.4170576,35.0831169 C17.3328358,35.1 17.2317697,35.1168831 17.1138593,35.1168831 L17.1138593,38.9155844 L14.7051173,38.9155844 L14.7051173,35.1337662 C14.2503198,35.0662338 13.8292111,35.0155844 13.391258,34.9480519 C12.0605544,34.7454545 10.7635394,34.3571429 9.53390192,33.8 C6.70405117,32.5337662 4.43006397,30.5922078 2.7119403,27.9922078 C1.56652452,26.2701299 0.808528785,24.3792208 0.421108742,22.3532468 C0.286353945,21.6779221 0.235820896,20.9688312 0.151599147,20.2935065 C0.134754797,20.2090909 0.117910448,20.1077922 0.117910448,20.0233766 L0.117910448,18.638961 C0.151599147,18.3012987 0.185287846,17.9636364 0.218976546,17.6428571 C0.370575693,16.1909091 0.707462687,14.8064935 1.24648188,13.4558442 C2.29083156,10.8558442 3.90788913,8.69480519 6.08081023,6.93896104 C7.46204691,5.82467532 9.01172708,4.98051948 10.6793177,4.38961039 C11.9257996,3.95064935 13.1891258,3.6974026 14.4861407,3.56233766 C14.6040512,3.54545455 14.6545842,3.52857143 14.6545842,3.39350649 C14.6545842,2.31298701 14.6545842,1.23246753 14.6377399,0.151948052 C15.4799574,0.168831169 16.2884861,0.168831169 17.0970149,0.168831169 L17.0970149,0.168831169 Z M17.0970149,5.95974026 L17.0970149,6.22987013 L17.0970149,32.3480519 L17.0970149,32.5337662 C17.0970149,32.6350649 17.1307036,32.6857143 17.2486141,32.6688312 C17.4339019,32.6350649 17.6360341,32.6181818 17.821322,32.5844156 C19.3710021,32.3649351 20.8196162,31.8753247 22.1840085,31.1493506 C23.7673774,30.2883117 25.1317697,29.1571429 26.2771855,27.738961 C27.8268657,25.7974026 28.7869936,23.6025974 29.1238806,21.1376623 C29.3933902,19.1961039 29.241791,17.2883117 28.6522388,15.4142857 C27.5405117,11.8688312 25.3339019,9.23506494 22.0660981,7.46233766 C20.954371,6.85454545 19.7584222,6.44935065 18.5287846,6.1961039 C18.0739872,6.09480519 17.6023454,6.04415584 17.0970149,5.95974026 L17.0970149,5.95974026 Z M14.6545842,6.01038961 C8.82643923,6.38181818 2.62771855,11.4974026 2.5434968,19.1454545 C2.4424307,27.012987 8.74221748,32.2636364 14.6545842,32.6519481 L14.6545842,6.01038961 L14.6545842,6.01038961 Z" id="Shape"></path>
                            <path d="M60.066951,19.4831169 L60.066951,3.81558442 C60.066951,3.61298701 60.117484,3.54545455 60.3196162,3.56233766 C60.841791,3.57922078 61.3639659,3.56233766 61.8692964,3.56233766 C63.0989339,3.5961039 64.3117271,3.7987013 65.5076759,4.13636364 C67.9332623,4.81168831 70.0724947,5.99350649 71.9253731,7.6987013 C74.0140725,9.60649351 75.4963753,11.9025974 76.3722814,14.587013 C76.7765458,15.8532468 77.0292111,17.1532468 77.1134328,18.4701299 C77.2313433,20.3103896 77.0460554,22.1337662 76.5070362,23.9233766 C75.3279318,27.874026 72.9865672,30.9298701 69.4997868,33.0909091 C67.7142857,34.2051948 65.7603412,34.8974026 63.6884861,35.2350649 C62.5430704,35.4207792 61.3808102,35.4207792 60.2353945,35.4207792 C60.0837953,35.4207792 60.0501066,35.3532468 60.066951,35.2350649 L60.066951,33.5467532 C60.066951,28.8701299 60.066951,24.1766234 60.066951,19.4831169 L60.066951,19.4831169 Z M62.475693,19.5168831 L62.475693,32.7025974 C62.475693,32.9558442 62.475693,32.9727273 62.7283582,32.9220779 C63.4021322,32.8038961 64.0759062,32.7194805 64.7328358,32.5337662 C67.5289979,31.7909091 69.8366738,30.2714286 71.6727079,28.0428571 C73.5255864,25.7805195 74.5362473,23.1805195 74.7046908,20.2597403 C74.7720682,19.061039 74.6878465,17.8792208 74.4351812,16.6974026 C73.9466951,14.4012987 72.9360341,12.3753247 71.4031983,10.6194805 C70.0556503,9.06623377 68.4554371,7.9012987 66.5688699,7.07402597 C65.3392324,6.55064935 64.0759062,6.1961039 62.7452026,6.06103896 C62.4925373,6.02727273 62.4925373,6.04415584 62.4925373,6.31428571 C62.475693,10.7207792 62.475693,15.1103896 62.475693,19.5168831 L62.475693,19.5168831 Z" id="Shape"></path>
                            <path d="M36.9733475,19.4831169 L36.9733475,3.78181818 C36.9733475,3.61298701 37.0070362,3.56233766 37.1754797,3.56233766 C37.8492537,3.57922078 38.5398721,3.52857143 39.2136461,3.57922078 C39.836887,3.61298701 40.4769723,3.71428571 41.0833689,3.83246753 C42.2287846,4.03506494 43.3236674,4.37272727 44.4017058,4.84545455 C45.8334755,5.45324675 47.1304904,6.26363636 48.3264392,7.25974026 C49.9098081,8.57662338 51.1899787,10.1467532 52.166951,11.9701299 C53.0765458,13.6415584 53.6660981,15.4311688 53.901919,17.3220779 C54.3398721,20.6818182 53.8008529,23.8727273 52.2511727,26.8779221 C50.8867804,29.5116883 48.9159915,31.5883117 46.389339,33.1246753 C44.9744136,33.9857143 43.4584222,34.6441558 41.8413646,34.9818182 C41.0833689,35.1506494 40.3253731,35.2857143 39.550533,35.3532468 C38.7420043,35.4207792 37.9334755,35.4038961 37.1081023,35.4207792 C36.9733475,35.4207792 36.9565032,35.3532468 36.9565032,35.2519481 L36.9565032,32.9220779 C36.9733475,28.4480519 36.9733475,23.9571429 36.9733475,19.4831169 L36.9733475,19.4831169 Z M39.3820896,19.4831169 L39.3820896,32.4493506 C39.3820896,32.9558442 39.3820896,32.9558442 39.8705757,32.8883117 C41.1675906,32.7194805 42.4309168,32.3818182 43.6268657,31.8415584 C45.7829424,30.8792208 47.5684435,29.4441558 48.9665245,27.5532468 C50.4319829,25.5779221 51.2910448,23.3662338 51.5605544,20.9350649 C51.7289979,19.3480519 51.6110874,17.7779221 51.2236674,16.2077922 C50.7857143,14.5025974 50.0614072,12.9324675 49.0170576,11.5142857 C47.5852878,9.55584416 45.7492537,8.08701299 43.5257996,7.10779221 C42.2793177,6.55064935 40.9654584,6.21298701 39.6010661,6.06103896 C39.3820896,6.04415584 39.3820896,6.11168831 39.3820896,6.28051948 C39.3820896,10.687013 39.3820896,15.0766234 39.3820896,19.4831169 L39.3820896,19.4831169 Z" id="Shape"></path>
                            <path d="M77.1471215,35.4207792 C76.1869936,35.4207792 75.4121535,34.6441558 75.4121535,33.6818182 C75.4121535,32.7194805 76.203838,31.925974 77.1639659,31.925974 C78.1072495,31.925974 78.9157783,32.7363636 78.8989339,33.6987013 C78.8989339,34.6441558 78.1072495,35.4207792 77.1471215,35.4207792 L77.1471215,35.4207792 Z" id="Shape"></path>
                        </g>
                    </g>
                </g>
            </g>
        </g>
    </g>
</svg>